<?xml version="1.0" encoding="iso-8859-1"?>
<!-- Generator: Adobe Illustrator 16.0.0, SVG Export Plug-In . SVG Version: 6.00 Build 0)  -->
<!DOCTYPE svg PUBLIC "-//W3C//DTD SVG 1.1//EN" "http://www.w3.org/Graphics/SVG/1.1/DTD/svg11.dtd">
<svg version="1.1" id="Capa_1" xmlns="http://www.w3.org/2000/svg" xmlns:xlink="http://www.w3.org/1999/xlink" x="0px" y="0px"
	 width="447.675px" height="447.675px" viewBox="0 0 447.675 447.675" style="enable-background:new 0 0 447.675 447.675;"
	 xml:space="preserve">
<g>
	<path d="M432.937,224.298c-1.928-2.813-4.038-5.382-6.224-7.842c-0.126-0.145-0.162-0.326-0.312-0.465l-1.382-1.368
		c-1.144-1.209-2.339-2.389-3.554-3.507L308.37,99.357c-0.239-0.235-0.562-0.331-0.813-0.528
		c-13.555-11.997-31.723-19.04-50.191-19.113c-0.099,0-0.184,0-0.277,0c-19.811,0-37.605,7.756-50.129,21.852
		c-12.72,14.301-19.116,34.159-17.587,54.487c1.096,14.632,6.336,28.326,14.729,39.254H30.264c-5.078-0.02-10.158-0.02-15.237-0.006
		L7.43,195.31c-0.017,0-0.021,0-0.021,0H7.392c-0.006,0-0.006-0.006-0.023,0H7.345c-1.803,0.021-3.456,0.675-4.728,1.764
		c0,0.006-0.015,0.006-0.015,0.006s0,0-0.007,0c-0.287,0.251-0.561,0.531-0.818,0.829l0,0l0,0c-1.075,1.272-1.753,2.902-1.776,4.7
		c-0.023,1.417,0.353,2.747,1.034,3.889c29.738,52.13,64.187,106.446,99.63,157.073c1.384,1.98,3.651,3.165,6.067,3.165
		c20.895,0,42.193,0.304,62.808,0.611c20.934,0.306,42.115,0.612,63.554,0.612c42.895,0,86.817-1.247,131.87-6.249
		c42.046-5.998,70.575-30.807,80.315-69.834C450.983,269.146,446.357,243.876,432.937,224.298z M218.047,111.426
		c9.73-10.944,23.446-16.966,39.264-16.867c17.352,0.063,34.347,7.682,45.466,20.386c0.471,0.539,1.018,0.958,1.604,1.327
		l78.189,77.276c-36.849-3.91-74.846,26.853-80.426,65.946c-0.662,5.329-0.686,10.703-0.084,15.999l-77.06-79.466
		c-0.401-0.657-0.897-1.267-1.507-1.789c-0.784-0.638-1.474-1.349-2.192-2.033l-2.386-2.454c-0.057-0.068-0.15-0.09-0.218-0.149
		c-8.293-9.068-13.533-21.339-14.548-34.668C202.931,138.597,207.99,122.74,218.047,111.426z M430.901,288.286
		c-11.065,44.242-47.373,55.793-67.817,58.715c-66.374,7.376-130.911,6.436-193.341,5.517c-19.386-0.285-39.382-0.575-59.139-0.611
		c-31.876-45.737-62.891-94.372-90.252-141.575c5.995,0.01,12.208-0.051,19.05-0.13c0.293-0.005,0.572-0.027,0.857-0.06h177.777
		l103.561,106.818c0.22,0.22,0.464,0.39,0.7,0.581c0.22,0.235,0.421,0.497,0.646,0.729c14.741,14.516,33.926,21.355,52.695,18.729
		c4.054-0.569,6.883-4.312,6.321-8.372c-0.56-4.061-4.303-6.896-8.366-6.326c-14.152,1.983-28.817-3.343-40.225-14.6
		c-12.429-12.257-18.602-29.586-16.52-46.236c4.486-31.46,36.452-57.208,65.919-53.038c10.59,1.327,20.372,6.057,28.553,13.507
		l3.258,3.224c2.171,2.314,4.24,4.788,6.112,7.523C431.747,248.812,435.571,269.604,430.901,288.286z"/>
</g>
<g>
</g>
<g>
</g>
<g>
</g>
<g>
</g>
<g>
</g>
<g>
</g>
<g>
</g>
<g>
</g>
<g>
</g>
<g>
</g>
<g>
</g>
<g>
</g>
<g>
</g>
<g>
</g>
<g>
</g>
</svg>
